0
SECTION
2
HEADER
9
$INSUNITS
70
4
9
$ACADVER
1
AC1014
9
$HANDSEED
5
FFFF
0
ENDSEC
0
SECTION
2
TABLES
0
TABLE
2
VPORT
5
8
100
AcDbSymbolTable
0
ENDTAB
0
TABLE
2
LTYPE
5
5
100
AcDbSymbolTable
0
LTYPE
5
14
100
AcDbSymbolTableRecord
100
AcDbLinetypeTableRecord
2
BYBLOCK
70
0
0
LTYPE
5
15
100
AcDbSymbolTableRecord
100
AcDbLinetypeTableRecord
2
BYLAYER
70
0
0
LTYPE
5
16
100
AcDbSymbolTableRecord
100
AcDbLinetypeTableRecord
2
DASHED
70
0
3
Dashed __ __ __ __ __ __ __ __ __ __ __ __ __ _
72
65
73
2
40
0.75
49
0.5
74
0
49
-0.25
74
0
0
ENDTAB
0
TABLE
2
LAYER
5
2
100
AcDbSymbolTable
70
3
0
LAYER
5
50
100
AcDbSymbolTableRecord
100
AcDbLayerTableRecord
2
1
70
0
62
7
6
DASHED
0
LAYER
5
51
100
AcDbSymbolTableRecord
100
AcDbLayerTableRecord
2
0
70
0
62
7
6
CONTINUOUS
0
ENDTAB
0
TABLE
2
STYLE
5
3
100
AcDbSymbolTable
70
1
0
STYLE
5
11
100
AcDbSymbolTableRecord
100
AcDbTextStyleTableRecord
2
STANDARD
70
0
0
ENDTAB
0
TABLE
2
VIEW
5
6
100
AcDbSymbolTable
70
0
0
ENDTAB
0
TABLE
2
UCS
5
7
100
AcDbSymbolTable
70
0
0
ENDTAB
0
TABLE
2
APPID
5
9
100
AcDbSymbolTable
70
2
0
APPID
5
12
100
AcDbSymbolTableRecord
100
AcDbRegAppTableRecord
2
ACAD
70
0
0
ENDTAB
0
TABLE
2
DIMSTYLE
5
A
100
AcDbSymbolTable
70
1
0
ENDTAB
0
TABLE
2
BLOCK_RECORD
5
1
100
AcDbSymbolTable
70
1
0
BLOCK_RECORD
5
1F
100
AcDbSymbolTableRecord
100
AcDbBlockTableRecord
2
*MODEL_SPACE
0
BLOCK_RECORD
5
1B
100
AcDbSymbolTableRecord
100
AcDbBlockTableRecord
2
*PAPER_SPACE
0
ENDTAB
0
ENDSEC
0
SECTION
2
BLOCKS
0
BLOCK
5
20
100
AcDbEntity
100
AcDbBlockBegin
2
*MODEL_SPACE
0
ENDBLK
5
21
100
AcDbEntity
100
AcDbBlockEnd
0
BLOCK
5
1C
100
AcDbEntity
100
AcDbBlockBegin
2
*PAPER_SPACE
0
ENDBLK
5
1D
100
AcDbEntity
100
AcDbBlockEnd
0
ENDSEC
0
SECTION
2
ENTITIES
0
POINT
5
100
100
AcDbEntity
8
0
100
AcDbPoint
10
205.891156
20
2.7863720000000036
30
0
0
POINT
5
101
100
AcDbEntity
8
0
100
AcDbPoint
10
84.223833000000013
20
-7.8295420000000071
30
0
0
POINT
5
102
100
AcDbEntity
8
0
100
AcDbPoint
10
8.7473619999999954
20
2.9404310000000056
30
0
0
POINT
5
103
100
AcDbEntity
8
0
100
AcDbPoint
10
130.41468599999999
20
-7.9836010000000002
30
0
0
POINT
5
104
100
AcDbEntity
8
0
100
AcDbPoint
10
176.25624542796558
20
-48.615335427579055
30
0
0
LWPOLYLINE
5
105
100
AcDbEntity
8
0
100
AcDbPolyline
90
8
70
1
43
0.0
10
200.62432689155457
20
-5.3518410189884325
10
213.62378923131573
20
-3.0596850737849368
42
0.4142135623730927
10
214.0293690189884
20
-2.4804571084453579
10
211.73721307378486
20
10.519005231315784
42
0.41421356237310092
10
211.15798510844536
20
10.924585018988422
10
198.15852276868415
20
8.6324290737849338
42
0.41421356237310131
10
197.75294298101153
20
8.0532011084453696
10
200.04509892621502
20
-4.9462612313157805
42
0.41421356237310208
0
LWPOLYLINE
5
106
100
AcDbEntity
8
0
100
AcDbPolyline
90
8
70
1
43
0.0
10
214.0293690189884
20
-2.4804571084453579
10
211.73721307378486
20
10.519005231315784
42
0.41421356237310092
10
211.15798510844536
20
10.924585018988422
10
198.15852276868415
20
8.6324290737849338
42
0.41421356237310131
10
197.75294298101153
20
8.0532011084453696
10
200.04509892621502
20
-4.9462612313157805
42
0.41421356237310208
10
200.62432689155457
20
-5.3518410189884325
10
213.62378923131573
20
-3.0596850737849368
42
0.4142135623730927
0
LWPOLYLINE
5
107
100
AcDbEntity
8
0
100
AcDbPolyline
90
8
70
1
43
0.0
10
217.33736680354352
20
-21.241044803327902
10
215.04521085833997
20
-8.2415824635667629
42
0.41421356237310092
10
214.46598289300044
20
-7.8360026758941252
10
201.46652055323926
20
-10.128158621097613
42
0.41421356237310086
10
201.06094076556661
20
-10.707386586437178
10
203.35309671077013
20
-23.70684892619833
42
0.4142135623731002
10
203.93232467610969
20
-24.112428713870983
10
216.93178701587084
20
-21.820272768667483
42
0.41421356237309248
0
LWPOLYLINE
5
108
100
AcDbEntity
8
0
100
AcDbPolyline
90
8
70
1
43
0.0
10
220.64536458809866
20
-40.001632498210455
10
218.35320864289511
20
-27.00217015844931
42
0.41421356237310092
10
217.77398067755558
20
-26.596590370776671
10
204.7745183377944
20
-28.888746315980161
42
0.41421356237310319
10
204.36893855012175
20
-29.467974281319727
10
206.66109449532527
20
-42.467436621080878
42
0.41421356237310109
10
207.24032246066483
20
-42.873016408753521
10
220.23978480042598
20
-40.580860463550025
42
0.41421356237308993
0
LWPOLYLINE
5
109
100
AcDbEntity
8
0
100
AcDbPolyline
90
8
70
1
43
0.0
10
172.73564489155461
20
-66.625293018988415
10
185.73510723131577
20
-64.33313707378494
42
0.41421356237309509
10
186.14068701898844
20
-63.753909108445356
10
183.8485310737849
20
-50.754446768684218
42
0.41421356237310353
10
183.2693031084454
20
-50.348866981011575
10
170.26984076868422
20
-52.641022926215051
42
0.41421356237309415
10
169.86426098101157
20
-53.220250891554628
10
172.15641692621506
20
-66.219713231315765
42
0.4142135623731002
0
LWPOLYLINE
5
110
100
AcDbEntity
8
0
100
AcDbPolyline
90
8
70
1
43
0.0
10
153.51642826391708
20
-74.38527081544882
10
165.47969105280086
20
-68.806709760471591
42
0.41421356237307172
10
165.72153581544882
20
-68.142246736082924
10
160.14297476047159
20
-56.178983947199143
42
0.41421356237307172
10
159.47851173608288
20
-55.937139184551157
10
147.51524894719915
20
-61.515700239528393
42
0.41421356237310669
10
147.27340418455117
20
-62.180163263917059
10
152.85196523952843
20
-74.143426052800848
42
0.41421356237310669
0
LWPOLYLINE
5
111
100
AcDbEntity
8
0
100
AcDbPolyline
90
8
70
1
43
0.0
10
137.08052670418923
20
-86.703407770075898
10
147.19231335335971
20
-78.218611322213604
42
0.414213562373069
10
147.25394177007593
20
-77.514195295810836
10
138.7691453222136
20
-67.402408646640325
42
0.41421356237312101
10
138.06472929581082
20
-67.340780229924107
10
127.95294264664034
20
-75.825576677786415
42
0.41421356237308044
10
127.89131422992412
20
-76.529992704189169
10
136.37611067778647
20
-86.641779353359695
42
0.41421356237308044
0
LWPOLYLINE
5
112
100
AcDbEntity
8
0
100
AcDbPolyline
90
8
70
1
43
0.0
10
67.38279664664033
20
-78.283601322213613
10
77.494583295810841
20
-86.768397770075921
42
0.41421356237307705
10
78.198999322213595
20
-86.706769353359704
10
86.683795770075903
20
-76.594982704189192
42
0.41421356237307305
10
86.622167353359686
20
-75.890566677786452
10
76.510380704189174
20
-67.40577022992413
42
0.41421356237310236
10
75.805964677786406
20
-67.467398646640348
10
67.321168229924098
20
-77.579185295810845
42
0.41421356237309509
0
LWPOLYLINE
5
113
100
AcDbEntity
8
0
100
AcDbPolyline
90
8
70
1
43
0.0
10
48.983253947199159
20
-68.826845760471613
10
60.946516736082934
20
-74.405406815448856
42
0.41421356237309037
10
61.610979760471601
20
-74.16356205280087
10
67.189540815448851
20
-62.20029926391711
42
0.41421356237309975
10
66.947696052800865
20
-61.535836239528443
10
54.98443326391709
20
-55.957275184551193
42
0.41421356237309975
10
54.319970239528423
20
-56.199119947199172
10
48.741409184551181
20
-68.162382736082932
42
0.41421356237309509
0
LWPOLYLINE
5
114
100
AcDbEntity
8
0
100
AcDbPolyline
90
8
70
1
43
0.0
10
28.92483676868423
20
-64.434199073784953
10
41.924299108445382
20
-66.726355018988428
42
0.41421356237310536
10
42.503527073784937
20
-66.320775231315793
10
44.795683018988413
20
-53.321312891554655
42
0.41421356237310536
10
44.39010323131577
20
-52.742084926215085
10
31.390640891554639
20
-50.449928981011603
42
0.41421356237309759
10
30.811412926215066
20
-50.855508768684246
10
28.519256981011591
20
-63.85497110844539
42
0.41421356237309248
0
LWPOLYLINE
5
115
100
AcDbEntity
8
0
100
AcDbPolyline
90
8
70
1
43
0.0
10
76.491199768684254
20
-13.675599073784944
10
89.490662108445377
20
-15.967755018988431
42
0.41421356237307261
10
90.069890073784961
20
-15.562175231315782
10
92.362046018988451
20
-2.562712891554634
42
0.41421356237310936
10
91.956466231315801
20
-1.983484926215068
10
78.957003891554649
20
0.30867101898841065
42
0.41421356237310786
10
78.377775926215094
20
-0.096908768684229013
10
76.085619981011604
20
-13.096371108445375
42
0.41421356237309759
0
LWPOLYLINE
5
116
100
AcDbEntity
8
0
100
AcDbPolyline
90
8
70
1
43
0.0
10
86.761892289229948
20
-34.322762926198351
10
89.054048234433424
20
-21.323300586437202
42
0.41421356237310947
10
88.648468446760788
20
-20.744072621097636
10
75.649006106999636
20
-18.451916675894154
42
0.41421356237310758
10
75.06977814166008
20
-18.857496463566797
10
72.777622196456591
20
-31.856958803327942
42
0.41421356237309759
10
73.183201984129227
20
-32.436186768667511
10
86.182664323890364
20
-34.728342713870994
42
0.41421356237307405
0
LWPOLYLINE
5
117
100
AcDbEntity
8
0
100
AcDbPolyline
90
8
70
1
43
0.0
10
83.453894504674935
20
-53.083350621080918
10
85.74605044987841
20
-40.083888281319766
42
0.41421356237310697
10
85.340470662205774
20
-39.504660315980203
10
72.341008322444623
20
-37.21250437077672
42
0.41421356237310786
10
71.761780357105053
20
-37.618084158449363
10
69.469624411901577
20
-50.617546498210508
42
0.41421356237309925
10
69.875204199574213
20
-51.196774463550071
10
82.874666539335351
20
-53.488930408753568
42
0.41421356237307366
0
LWPOLYLINE
5
118
100
AcDbEntity
8
0
100
AcDbPolyline
90
8
70
1
43
0.0
10
71.743422823069722
20
-9.7921580642302324
10
74.035578768273197
20
3.2073042755309169
42
0.41421356237310947
10
73.629998980600561
20
3.7865322408704829
10
60.630536640839409
20
6.0786881860739612
42
0.41421356237310758
10
60.051308675499854
20
5.6731083984013209
10
57.759152730296364
20
-7.3263539413598249
42
0.41421356237309759
10
58.164732517969007
20
-7.9055819066993944
10
71.164194857730138
20
-10.197737851902879
42
0.41421356237307261
0
LWPOLYLINE
5
119
100
AcDbEntity
8
0
100
AcDbPolyline
90
8
70
1
43
0.0
10
56.743310890944834
20
-13.087479296481245
10
54.451154945741351
20
-26.086941636242393
42
0.41421356237309509
10
54.856734733413994
20
-26.666169601581959
10
67.856197073175125
20
-28.958325546785446
42
0.41421356237307461
10
68.435425038514708
20
-28.552745759112803
10
70.727580983718184
20
-15.553283419351651
42
0.41421356237310947
10
70.322001196045548
20
-14.974055454012085
10
57.322538856284389
20
-12.681899508808606
42
0.41421356237310758
0
LWPOLYLINE
5
120
100
AcDbEntity
8
0
100
AcDbPolyline
90
8
70
1
43
0.0
10
53.435313106389813
20
-31.848066991363808
10
51.14315716118633
20
-44.847529331124953
42
0.41421356237309925
10
51.548736948858974
20
-45.426757296464515
10
64.548199288620111
20
-47.718913241668012
42
0.41421356237307461
10
65.127427253959695
20
-47.313333453995369
10
67.419583199163171
20
-34.313871114234217
42
0.41421356237310947
10
67.014003411490521
20
-33.734643148894648
10
54.014541071729376
20
-31.442487203691172
42
0.41421356237310536
0
LWPOLYLINE
5
121
100
AcDbEntity
8
0
100
AcDbPolyline
90
8
70
1
43
0.0
10
53.416955572354503
20
-4.0221408971446806
10
55.709111517557979
20
8.9773214426164678
42
0.41421356237310947
10
55.303531729885336
20
9.5565494079560338
10
42.304069390124184
20
11.848705353159513
42
0.41421356237310786
10
41.724841424784628
20
11.443125565486874
10
39.432685479581139
20
-1.5563367742742729
42
0.41421356237309759
10
39.838265267253789
20
-2.1355647396138435
10
52.837727607014919
20
-4.4277206848173281
42
0.41421356237307261
0
LWPOLYLINE
5
122
100
AcDbEntity
8
0
100
AcDbPolyline
90
8
70
1
43
0.0
10
50.108957787799483
20
-22.782728592027247
10
52.401113733002958
20
-9.7832662522660989
42
0.41421356237310947
10
51.995533945330322
20
-9.2040382869265329
10
38.996071605569171
20
-6.9118823417230537
42
0.41421356237310758
10
38.416843640229608
20
-7.3174621293956941
10
36.124687695026125
20
-20.316924469156842
42
0.41421356237309509
10
36.530267482698768
20
-20.896152434496408
10
49.529729822459899
20
-23.18830837969989
42
0.41421356237307461
0
LWPOLYLINE
5
123
100
AcDbEntity
8
0
100
AcDbPolyline
90
8
70
1
43
0.0
10
46.800960003244469
20
-41.543316286909814
10
49.093115948447945
20
-28.543853947148662
42
0.41421356237310947
10
48.687536160775302
20
-27.964625981809096
10
35.68807382101415
20
-25.67247003660562
42
0.41421356237310536
10
35.108845855674595
20
-26.078049824278256
10
32.816689910471112
20
-39.077512164039398
42
0.41421356237309925
10
33.222269698143748
20
-39.656740129378967
10
46.221732037904886
20
-41.94889607458245
42
0.41421356237307461
0
LWPOLYLINE
5
124
100
AcDbEntity
8
0
100
AcDbPolyline
90
8
70
1
43
0.0
10
34.222247433304631
20
-3.1761624951201686
10
36.514403378508106
20
9.8232998446409798
42
0.41421356237310947
10
36.108823590835463
20
10.402527809980546
10
23.109361251074311
20
12.694683755184023
42
0.41421356237310786
10
22.530133285734752
20
12.289103967511386
10
20.237977340531266
20
-0.71035837224976106
42
0.41421356237309759
10
20.643557128203909
20
-1.2895863375893315
10
33.643019467965047
20
-3.581742282792816
42
0.41421356237307261
0
LWPOLYLINE
5
125
100
AcDbEntity
8
0
100
AcDbPolyline
90
8
70
1
43
0.0
10
19.222135501179736
20
-6.471483727371182
10
16.929979555976253
20
-19.470946067132328
42
0.41421356237309509
10
17.335559343648896
20
-20.050174032471894
10
30.335021683410027
20
-22.34232997767538
42
0.41421356237307461
10
30.91424964874961
20
-21.936750190002737
10
33.206405593953086
20
-8.9372878502415887
42
0.41421356237310947
10
32.800825806280443
20
-8.3580598849020227
10
19.801363466519291
20
-6.0659039396985417
42
0.41421356237310758
0
LWPOLYLINE
5
126
100
AcDbEntity
8
0
100
AcDbPolyline
90
8
70
1
43
0.0
10
15.914137716624719
20
-25.232071422253743
10
13.621981771421234
20
-38.231533762014884
42
0.41421356237309925
10
14.027561559093877
20
-38.810761727354453
10
27.027023898855013
20
-41.102917672557943
42
0.41421356237307461
10
27.606251864194597
20
-40.6973378848853
10
29.898407809398073
20
-27.697875545124152
42
0.41421356237310947
10
29.49282802172543
20
-27.118647579784586
10
16.493365681964278
20
-24.82649163458111
42
0.41421356237310536
0
LWPOLYLINE
5
127
100
AcDbEntity
8
0
100
AcDbPolyline
90
8
70
1
43
0.0
10
14.593418850087421
20
-4.7922034756261773
10
16.885574795290896
20
8.2072588641349693
42
0.41421356237310947
10
16.479995007618253
20
8.7864868294745353
10
3.4805326678571014
20
11.078642774678013
42
0.41421356237310786
10
2.9013047025175442
20
10.673062987005375
10
0.60914875731405982
20
-2.3263993527557707
42
0.41421356237309753
10
1.0147285449867027
20
-2.9056273180953407
10
14.014190884747837
20
-5.1977832632988257
42
0.41421356237307261
0
LWPOLYLINE
5
128
100
AcDbEntity
8
0
100
AcDbPolyline
90
8
70
1
43
0.0
10
11.285421065532404
20
-23.552791170508748
10
13.57757701073588
20
-10.553328830747599
42
0.41421356237310947
10
13.171997223063237
20
-9.9741008654080332
10
0.17253488330208455
20
-7.6819449202045504
42
0.41421356237310758
10
-0.40669308203747256
20
-8.0875247078771917
10
-2.6988490272409571
20
-21.086987047638338
42
0.41421356237309509
10
-2.2932692395683141
20
-21.666215012977904
10
10.70619310019282
20
-23.958370958181391
42
0.41421356237307461
0
LWPOLYLINE
5
129
100
AcDbEntity
8
0
100
AcDbPolyline
90
8
70
1
43
0.0
10
7.9774232809773871
20
-42.313378865391307
10
10.269579226180863
20
-29.313916525630162
42
0.41421356237310947
10
9.8639994385082197
20
-28.734688560290596
10
-3.1354629012529323
20
-26.442532615087121
42
0.41421356237310536
10
-3.7146908665924894
20
-26.848112402759753
10
-6.0068468117959739
20
-39.847574742520898
42
0.41421356237309881
10
-5.6012670241233309
20
-40.42680270786046
10
7.3981953156378033
20
-42.71895865306395
42
0.41421356237307461
0
LWPOLYLINE
5
130
100
AcDbEntity
8
0
100
AcDbPolyline
90
8
70
1
43
0.0
10
194.40054043577118
20
-0.86441612793936917
10
192.10838449056763
20
12.135046211821772
42
0.41421356237310092
10
191.5291565252281
20
12.540625999494409
10
178.52969418546692
20
10.248470054290921
42
0.41421356237310125
10
178.12411439779427
20
9.6692420889513588
10
180.41627034299779
20
-3.3302202508097913
42
0.41421356237310247
10
180.99549830833735
20
-3.7358000384824432
10
193.9949606480985
20
-1.4436440932789474
42
0.41421356237309237
0
LWPOLYLINE
5
131
100
AcDbEntity
8
0
100
AcDbPolyline
90
8
70
1
43
0.0
10
181.43211218234939
20
-9.0913456059311883
10
183.7242681275529
20
-22.09080794569234
42
0.4142135623731002
10
184.30349609289243
20
-22.496387733364994
10
197.30295843265361
20
-20.204231788161493
42
0.41421356237309248
10
197.70853822032626
20
-19.625003822821917
10
195.41638227512271
20
-6.6255414830607728
42
0.41421356237310092
10
194.83715430978322
20
-6.2199616953881343
10
181.83769197002204
20
-8.5121176405916223
42
0.41421356237310109
0
LWPOLYLINE
5
132
100
AcDbEntity
8
0
100
AcDbPolyline
90
8
70
1
43
0.0
10
184.74010996690453
20
-27.851933300813737
10
187.03226591210804
20
-40.851395640574886
42
0.41421356237310109
10
187.61149387744757
20
-41.256975428247529
10
200.61095621720875
20
-38.964819483044039
42
0.41421356237308993
10
201.0165360048814
20
-38.385591517704462
10
198.72438005967786
20
-25.386129177943321
42
0.41421356237310092
10
198.14515209433836
20
-24.980549390270681
10
185.14568975457718
20
-27.272705335474171
42
0.41421356237310319
0
LWPOLYLINE
5
133
100
AcDbEntity
8
0
100
AcDbPolyline
90
8
70
1
43
0.0
10
181.82182786583152
20
-39.231569919728969
10
179.52967192062798
20
-26.232107579967831
42
0.41421356237310353
10
178.95044395528845
20
-25.826527792295188
10
165.95098161552727
20
-28.118683737498678
42
0.41421356237310536
10
165.54540182785462
20
-28.697911702838248
10
167.83755777305814
20
-41.697374042599392
42
0.41421356237310702
10
168.41678573839769
20
-42.102953830272028
10
181.41624807815884
20
-39.810797885068538
42
0.41421356237308482
0
LWPOLYLINE
5
134
100
AcDbEntity
8
0
100
AcDbPolyline
90
8
70
1
43
0.0
10
178.51383008127638
20
-20.470982224846423
10
176.22167413607283
20
-7.4715198850852795
42
0.41421356237310164
10
175.64244617073331
20
-7.065940097412641
10
162.64298383097213
20
-9.358096042616129
42
0.41421356237310109
10
162.23740404329948
20
-9.937324007955695
10
164.529559988503
20
-22.936786347716847
42
0.4142135623731002
10
165.10878795384255
20
-23.342366135389501
10
178.1082502936037
20
-21.050210190186
42
0.41421356237308993
0
LINE
5
135
100
AcDbEntity
8
0
100
AcDbLine
10
175.20583229672127
20
-1.7103945299638756
30
0
11
172.91367635151772
21
11.289067809797263
31
0
0
ARC
5
136
100
AcDbEntity
8
0
100
AcDbCircle
10
172.42127247501168
20
11.202243720963825
30
0
40
0.49999999999995226
210
0
220
-0
230
1
100
AcDbArc
50
9.99999999999811
51
99.999999999999105
0
LINE
5
137
100
AcDbEntity
8
0
100
AcDbLine
10
172.33444838617822
20
11.694647597469903
30
0
11
159.33498604641701
21
9.4024916522664164
31
0
0
ARC
5
138
100
AcDbEntity
8
0
100
AcDbCircle
10
159.42181013525047
20
8.9100877757603154
30
0
40
0.49999999999999389
210
0
220
0
230
1
100
AcDbArc
50
99.99999999999865
51
190.00000000000011
0
LINE
5
139
100
AcDbEntity
8
0
100
AcDbLine
10
158.92940625874439
20
8.8232636869268539
30
0
11
161.22156220394788
21
-4.1761986528342963
31
0
0
ARC
5
140
100
AcDbEntity
8
0
100
AcDbCircle
10
161.71396608045399
20
-4.0893745640008561
30
0
40
0.4999999999999874
210
0
220
0
230
1
100
AcDbArc
50
189.99999999999719
51
279.99999999999881
0
ARC
5
141
100
AcDbEntity
8
0
100
AcDbCircle
10
174.71342842021514
20
-1.7972186187973238
30
0
40
0.50000000000002343
210
-0
220
0
230
1
100
AcDbArc
50
-80.000000000001947
51
9.999999999997522
0
LINE
5
142
100
AcDbEntity
8
0
100
AcDbLine
10
161.80079016928744
20
-4.5817784405069482
30
0
11
174.80025250904859
21
-2.2896224953034539
31
0
0
LWPOLYLINE
5
143
100
AcDbEntity
8
0
100
AcDbPolyline
90
8
70
1
43
0.0
10
175.20583229672127
20
-1.7103945299638756
10
172.91367635151772
20
11.289067809797263
42
0.41421356237310092
10
172.33444838617822
20
11.694647597469903
10
159.33498604641701
20
9.4024916522664164
42
0.41421356237310125
10
158.92940625874439
20
8.8232636869268539
10
161.22156220394788
20
-4.1761986528342963
42
0.41421356237310247
10
161.80079016928744
20
-4.5817784405069482
10
174.80025250904859
20
-2.2896224953034539
42
0.41421356237309237
0
LWPOLYLINE
5
144
100
AcDbEntity
8
0
100
AcDbPolyline
90
8
70
1
43
0.0
10
162.23740404329948
20
-9.937324007955695
10
164.529559988503
20
-22.936786347716847
42
0.4142135623731002
10
165.10878795384255
20
-23.342366135389501
10
178.1082502936037
20
-21.050210190186
42
0.41421356237308993
10
178.51383008127638
20
-20.470982224846423
10
176.22167413607283
20
-7.4715198850852795
42
0.41421356237310164
10
175.64244617073331
20
-7.065940097412641
10
162.64298383097213
20
-9.358096042616129
42
0.41421356237310109
0
LWPOLYLINE
5
145
100
AcDbEntity
8
0
100
AcDbPolyline
90
8
70
1
43
0.0
10
165.54540182785462
20
-28.697911702838248
10
167.83755777305814
20
-41.697374042599392
42
0.41421356237310702
10
168.41678573839769
20
-42.102953830272028
10
181.41624807815884
20
-39.810797885068538
42
0.41421356237308482
10
181.82182786583152
20
-39.231569919728969
10
179.52967192062798
20
-26.232107579967831
42
0.41421356237310353
10
178.95044395528845
20
-25.826527792295188
10
165.95098161552727
20
-28.118683737498678
42
0.41421356237310536
0
LWPOLYLINE
5
146
100
AcDbEntity
8
0
100
AcDbPolyline
90
8
70
1
43
0.0
10
156.87936504600597
20
-7.4804116970494317
10
154.58720910080243
20
5.5190506427117043
42
0.41421356237310092
10
154.0079811354629
20
5.9246304303843438
10
141.00851879570175
20
3.6324744851808588
42
0.41421356237310192
10
140.6029390080291
20
3.053246519841295
10
142.89509495323259
20
-9.9462158199198534
42
0.41421356237310247
10
143.47432291857214
20
-10.351795607592504
10
156.47378525833329
20
-8.0596396623890101
42
0.41421356237309237
0
LWPOLYLINE
5
147
100
AcDbEntity
8
0
100
AcDbPolyline
90
8
70
1
43
0.0
10
143.91093679258418
20
-15.70734117504125
10
146.2030927377877
20
-28.706803514802402
42
0.4142135623731002
10
146.78232070312725
20
-29.112383302475052
10
159.78178304288838
20
-26.820227357271552
42
0.41421356237308993
10
160.18736283056109
20
-26.240999391931975
10
157.89520688535754
20
-13.241537052170836
42
0.41421356237310247
10
157.31597892001801
20
-12.835957264498196
10
144.31651658025683
20
-15.128113209701684
42
0.41421356237310109
0
LWPOLYLINE
5
148
100
AcDbEntity
8
0
100
AcDbPolyline
90
8
70
1
43
0.0
10
147.21893457713932
20
-34.467928869923796
10
149.51109052234284
20
-47.467391209684934
42
0.41421356237310702
10
150.0903184876824
20
-47.872970997357584
10
163.08978082744352
20
-45.580815052154087
42
0.41421356237308482
10
163.49536061511623
20
-45.001587086814524
10
161.20320466991268
20
-32.002124747053379
42
0.41421356237310353
10
160.62397670457315
20
-31.59654495938074
10
147.62451436481197
20
-33.888700904584233
42
0.41421356237310536
0
LWPOLYLINE
5
149
100
AcDbEntity
8
0
100
AcDbPolyline
90
8
70
1
43
0.0
10
125.14785566785689
20
-16.12181277467807
10
138.14731800761803
20
-13.829656829474573
42
0.41421356237309226
10
138.5528977952907
20
-13.250428864134996
10
136.26074185008716
20
-0.25096652437385902
42
0.41421356237310092
10
135.68151388474766
20
0.15461326329877956
10
122.68205154498648
20
-2.137542681904705
42
0.41421356237310192
10
122.27647175731384
20
-2.7167706472442688
10
124.56862770251733
20
-15.716232987005416
42
0.41421356237310164
0
LWPOLYLINE
5
150
100
AcDbEntity
8
0
100
AcDbPolyline
90
8
70
1
43
0.0
10
125.58446954186893
20
-21.477358342126813
10
127.87662548707245
20
-34.476820681887965
42
0.4142135623731002
10
128.45585345241199
20
-34.882400469560615
10
141.45531579217314
20
-32.590244524357111
42
0.41421356237308993
10
141.86089557984582
20
-32.011016559017534
10
139.56873963464227
20
-19.0115542192564
42
0.41421356237310247
10
138.98951166930277
20
-18.605974431583761
10
125.99004932954158
20
-20.898130376787243
42
0.41421356237310109
0
LWPOLYLINE
5
151
100
AcDbEntity
8
0
100
AcDbPolyline
90
8
70
1
43
0.0
10
128.89246732642408
20
-40.237946037009358
10
131.18462327162757
20
-53.237408376770503
42
0.41421356237310702
10
131.76385123696713
20
-53.642988164443146
10
144.76331357672828
20
-51.350832219239649
42
0.41421356237308482
10
145.16889336440096
20
-50.771604253900087
10
142.87673741919741
20
-37.772141914138942
42
0.41421356237310353
10
142.29750945385791
20
-37.366562126466299
10
129.2980471140967
20
-39.658718071669796
42
0.41421356237310536
0
ARC
5
152
100
AcDbEntity
8
0
100
AcDbCircle
10
223.99028023758478
20
-42.609373332075776
30
0
40
1.4999999999999922
210
0
220
0
230
1
100
AcDbArc
50
-79.99999999999919
51
10.000000000000197
0
LINE
5
153
100
AcDbEntity
8
0
100
AcDbLine
10
189.6840003733567
20
-50.181635997703317
30
0
11
224.2507525040852
21
-44.086584961594077
31
0
0
ARC
5
154
100
AcDbEntity
8
0
100
AcDbCircle
10
189.94447263985708
20
-51.658847627221611
30
0
40
1.4999999999999836
210
0
220
0
230
1
100
AcDbArc
50
99.999999999999773
51
190.00000000000065
0
LINE
5
155
100
AcDbEntity
8
0
100
AcDbLine
10
188.4672610103388
20
-51.919319893722019
30
0
11
191.10358542546686
21
-66.87065861985225
31
0
0
ARC
5
156
100
AcDbEntity
8
0
100
AcDbCircle
10
189.6263737959485
20
-67.131130886352622
30
0
40
1.5000000000000355
210
-0
220
0
230
1
100
AcDbArc
50
-87.630351794439903
51
9.9999999999987672
0
ARC
5
157
100
AcDbEntity
8
0
100
AcDbCircle
10
192.74802501802378
20
-142.56656880281017
30
0
40
74
210
0
220
0
230
1
100
AcDbArc
50
92.369648205559329
51
137.63035179444074
0
ARC
5
158
100
AcDbEntity
8
0
100
AcDbCircle
10
136.96768571518766
20
-91.686280406806802
30
0
40
1.4999999999999942
210
0
220
0
230
1
100
AcDbArc
50
219.99999999999901
51
317.63035179443909
0
LINE
5
159
100
AcDbEntity
8
0
100
AcDbLine
10
134.88661788601729
20
-91.539746085251409
30
0
11
135.81861905050917
21
-92.650461821336592
31
0
0
LINE
5
160
100
AcDbEntity
8
0
100
AcDbLine
10
124.14019784630855
20
-78.732661395402161
30
0
11
134.88661788601729
21
-91.539746085251409
31
0
0
ARC
5
161
100
AcDbEntity
8
0
100
AcDbCircle
10
120.30997563071361
20
-81.946599443835012
30
0
40
5.0000000000001421
210
0
220
-0
230
1
100
AcDbArc
50
40.000000000000952
51
89.999999999999346
0
LINE
5
162
100
AcDbEntity
8
0
100
AcDbLine
10
94.190024369286363
20
-76.94659944383487
30
0
11
120.30997563071367
21
-76.94659944383487
31
0
0
ARC
5
163
100
AcDbEntity
8
0
100
AcDbCircle
10
94.190024369286419
20
-81.946599443835012
30
0
40
5.0000000000001421
210
0
220
0
230
1
100
AcDbArc
50
90.000000000000654
51
139.99999999999906
0
LINE
5
164
100
AcDbEntity
8
0
100
AcDbLine
10
90.359802153691476
20
-78.732661395402161
30
0
11
79.613382113982738
21
-91.539746085251409
31
0
0
LINE
5
165
100
AcDbEntity
8
0
100
AcDbLine
10
79.613382113982738
20
-91.539746085251409
30
0
11
78.681380949490858
21
-92.650461821336592
31
0
0
ARC
5
166
100
AcDbEntity
8
0
100
AcDbCircle
10
77.532314284812401
20
-91.686280406806745
30
0
40
1.5000000000000258
210
0
220
0
230
1
100
AcDbArc
50
222.36964820555906
51
319.99999999999864
0
ARC
5
167
100
AcDbEntity
8
0
100
AcDbCircle
10
21.751974981976279
20
-142.56656880281017
30
0
40
74
210
0
220
-0
230
1
100
AcDbArc
50
42.369648205559336
51
87.630351794440728
0
ARC
5
168
100
AcDbEntity
8
0
100
AcDbCircle
10
24.873626204051448
20
-67.131130886352665
30
0
40
1.4999999999999809
210
0
220
0
230
1
100
AcDbArc
50
169.99999999999974
51
267.63035179444142
0
LINE
5
169
100
AcDbEntity
8
0
100
AcDbLine
10
26.03273898966124
20
-51.91931989372204
30
0
11
23.396414574533154
21
-66.870658619852264
31
0
0
ARC
5
170
100
AcDbEntity
8
0
100
AcDbCircle
10
24.555527360142925
20
-51.65884762722164
30
0
40
1.5000000000000024
210
-0
220
0
230
1
100
AcDbArc
50
-10.000000000000142
51
79.999999999999844
0
LINE
5
171
100
AcDbEntity
8
0
100
AcDbLine
10
-9.7507525040851473
20
-44.086584961594085
30
0
11
24.815999626643325
21
-50.181635997703324
31
0
0
ARC
5
172
100
AcDbEntity
8
0
100
AcDbCircle
10
-9.4902802375847788
20
-42.609373332075791
30
0
40
1.4999999999999758
210
0
220
0
230
1
100
AcDbArc
50
169.99999999999915
51
260.00000000000091
0
LINE
5
173
100
AcDbEntity
8
0
100
AcDbLine
10
-0.95667442460457208
20
14.425265895578438
30
0
11
-10.967491867103064
21
-42.348901065575376
31
0
0
LINE
5
174
100
AcDbEntity
8
0
100
AcDbLine
10
-0.95667442460457208
20
14.425265895578438
30
0
11
-0.86985033577110671
21
14.917669772084544
31
0
0
ARC
5
175
100
AcDbEntity
8
0
100
AcDbCircle
10
0.60736129374720471
20
14.657197505584147
30
0
40
1.4999999999999993
210
0
220
-0
230
1
100
AcDbArc
50
79.999999999999972
51
169.99999999999997
0
LINE
5
176
100
AcDbEntity
8
0
100
AcDbLine
10
0.86783356024760072
20
16.134409135102459
30
0
11
17.757286524406972
21
13.15634288811461
31
0
0
ARC
5
177
100
AcDbEntity
8
0
100
AcDbCircle
10
17.826745795473744
20
13.550265989319492
30
0
40
0.39999999999999986
210
0
220
0
230
1
100
AcDbArc
50
259.99999999999989
51
349.99999999999994
0
LINE
5
178
100
AcDbEntity
8
0
100
AcDbLine
10
18.758978247446116
20
16.533710752590565
30
0
11
18.220668896678628
21
13.480806718252719
31
0
0
ARC
5
179
100
AcDbEntity
8
0
100
AcDbCircle
10
20.236189876964428
20
16.273238486090168
30
0
40
1.5000000000000033
210
0
220
-0
230
1
100
AcDbArc
50
80.000000000000099
51
169.99999999999997
0
LINE
5
180
100
AcDbEntity
8
0
100
AcDbLine
10
37.386115107624207
20
14.772383868620631
30
0
11
20.496662143464821
21
17.750450115608484
31
0
0
ARC
5
181
100
AcDbEntity
8
0
100
AcDbCircle
10
37.455574378690976
20
15.166306969825513
30
0
40
0.39999999999999947
210
0
220
0
230
1
100
AcDbArc
50
260.0000000000004
51
349.99999999999994
0
LINE
5
182
100
AcDbEntity
8
0
100
AcDbLine
10
37.849497479895859
20
15.09684769875874
30
0
11
37.953686386496017
21
15.687732350566066
31
0
0
ARC
5
183
100
AcDbEntity
8
0
100
AcDbCircle
10
39.430898016014325
20
15.427260084065678
30
0
40
1.4999999999999911
210
0
220
-0
230
1
100
AcDbArc
50
79.999999999999758
51
170.00000000000028
0
LINE
5
184
100
AcDbEntity
8
0
100
AcDbLine
10
39.691370282514725
20
16.90447171358398
30
0
11
59.436765730409505
21
13.422825751362028
31
0
0
ARC
5
185
100
AcDbEntity
8
0
100
AcDbCircle
10
59.176293463909111
20
11.945614121843713
30
0
40
1.5000000000000009
210
-0
220
0
230
1
100
AcDbArc
50
-9.9999999999997851
51
80.000000000000099
0
LINE
5
186
100
AcDbEntity
8
0
100
AcDbLine
10
60.653505093427427
20
11.685141855343321
30
0
11
60.549316186827284
21
11.094257203535992
31
0
0
ARC
5
187
100
AcDbEntity
8
0
100
AcDbCircle
10
60.943239288032146
20
11.024797932469212
30
0
40
0.39999999999998787
210
0
220
0
230
1
100
AcDbArc
50
169.99999999999844
51
259.99999999999915
0
LINE
5
188
100
AcDbEntity
8
0
100
AcDbLine
10
60.87378001696537
20
10.63087483126434
30
0
11
77.763232981124759
21
7.6528085842764826
31
0
0
ARC
5
189
100
AcDbEntity
8
0
100
AcDbCircle
10
77.502760714624372
20
6.1755969547581868
30
0
40
1.499999999999986
210
-0
220
0
230
1
100
AcDbArc
50
-10.000000000000549
51
80.000000000000242
0
LINE
5
190
100
AcDbEntity
8
0
100
AcDbLine
10
78.979972344142666
20
5.9151246882577793
30
0
11
78.875783437542509
21
5.324240036450453
31
0
0
ARC
5
191
100
AcDbEntity
8
0
100
AcDbCircle
10
79.269706538747414
20
5.2547807653836909
30
0
40
0.40000000000001956
210
0
220
0
230
1
100
AcDbArc
50
170.00000000000196
51
259.99999999999767
0
LINE
5
192
100
AcDbEntity
8
0
100
AcDbLine
10
79.200247267680624
20
4.8608576641787966
30
0
11
97.136114290653239
21
1.6982803856295141
31
0
0
ARC
5
193
100
AcDbEntity
8
0
100
AcDbCircle
10
98.004355178987964
20
6.6223191506908909
30
0
40
5.0000000000003428
210
0
220
0
230
1
100
AcDbArc
50
259.99999999999983
51
269.9999999999992
0
ARC
5
194
100
AcDbEntity
8
0
100
AcDbCircle
10
116.49564482101212
20
6.6223191506903127
30
0
40
4.9999999999997629
210
0
220
0
230
1
100
AcDbArc
50
270.00000000000017
51
280.00000000000063
0
LINE
5
195
100
AcDbEntity
8
0
100
AcDbLine
10
135.2997527323194
20
4.8608576641787966
30
0
11
117.36388570934679
21
1.698280385629515
31
0
0
ARC
5
196
100
AcDbEntity
8
0
100
AcDbCircle
10
135.23029346125264
20
5.2547807653836713
30
0
40
0.39999999999998842
210
-0
220
0
230
1
100
AcDbArc
50
-80.000000000001236
51
10.000000000001259
0
LINE
5
197
100
AcDbEntity
8
0
100
AcDbLine
10
135.52002765585738
20
5.9151246882577837
30
0
11
135.62421656245752
21
5.3242400364504512
31
0
0
ARC
5
198
100
AcDbEntity
8
0
100
AcDbCircle
10
136.99723928537571
20
6.1755969547581504
30
0
40
1.5000000000000291
210
0
220
0
230
1
100
AcDbArc
50
100.00000000000057
51
189.99999999999869
0
LINE
5
199
100
AcDbEntity
8
0
100
AcDbLine
10
153.62621998303464
20
10.630874831264334
30
0
11
136.7367670188753
21
7.6528085842764861
31
0
0
ARC
5
200
100
AcDbEntity
8
0
100
AcDbCircle
10
153.55676071196788
20
11.024797932469221
30
0
40
0.40000000000000457
210
-0
220
0
230
1
100
AcDbArc
50
-80.000000000001535
51
10.000000000000746
0
LINE
5
201
100
AcDbEntity
8
0
100
AcDbLine
10
153.84649490657262
20
11.68514185534332
30
0
11
153.95068381317276
21
11.094257203535998
31
0
0
ARC
5
202
100
AcDbEntity
8
0
100
AcDbCircle
10
155.32370653609095
20
11.94561412184369
30
0
40
1.5000000000000335
210
0
220
0
230
1
100
AcDbArc
50
100.00000000000053
51
189.99999999999889
0
LINE
5
203
100
AcDbEntity
8
0
100
AcDbLine
10
174.80862971748533
20
16.904471713583987
30
0
11
155.06323426959054
21
13.42282575136203
31
0
0
ARC
5
204
100
AcDbEntity
8
0
100
AcDbCircle
10
175.06910198398572
20
15.427260084065724
30
0
40
1.4999999999999316
210
0
220
-0
230
1
100
AcDbArc
50
9.9999999999985842
51
99.999999999999972
0
LINE
5
205
100
AcDbEntity
8
0
100
AcDbLine
10
176.65050252010417
20
15.096847698758717
30
0
11
176.54631361350397
21
15.687732350566071
31
0
0
ARC
5
206
100
AcDbEntity
8
0
100
AcDbCircle
10
177.04442562130907
20
15.166306969825554
30
0
40
0.4000000000000325
210
0
220
0
230
1
100
AcDbArc
50
190.00000000000855
51
279.99999999999773
0
LINE
5
207
100
AcDbEntity
8
0
100
AcDbLine
10
194.00333785653521
20
17.750450115608484
30
0
11
177.11388489237584
21
14.772383868620638
31
0
0
ARC
5
208
100
AcDbEntity
8
0
100
AcDbCircle
10
194.26381012303563
20
16.273238486090186
30
0
40
1.4999999999999734
210
0
220
-0
230
1
100
AcDbArc
50
9.9999999999997193
51
100.00000000000082
0
LINE
5
209
100
AcDbEntity
8
0
100
AcDbLine
10
196.26196628555473
20
13.57928749355394
30
0
11
195.74102175255391
21
16.533710752590569
31
0
0
ARC
5
210
100
AcDbEntity
8
0
100
AcDbCircle
10
196.75437016206081
20
13.666111582387385
30
0
40
0.49999999999998845
210
0
220
0
230
1
100
AcDbArc
50
189.99999999999829
51
279.99999999999875
0
LINE
5
211
100
AcDbEntity
8
0
100
AcDbLine
10
213.63216643975244
20
16.134409135102455
30
0
11
196.84119425089426
21
13.173707705881291
31
0
0
ARC
5
212
100
AcDbEntity
8
0
100
AcDbCircle
10
213.89263870625285
20
14.657197505584154
30
0
40
1.4999999999999727
210
0
220
-0
230
1
100
AcDbArc
50
9.9999999999997193
51
100.00000000000078
0
LINE
5
213
100
AcDbEntity
8
0
100
AcDbLine
10
215.45667442460459
20
14.425265895578438
30
0
11
215.36985033577113
21
14.917669772084537
31
0
0
LINE
5
214
100
AcDbEntity
8
0
100
AcDbLine
10
215.45667442460459
20
14.425265895578438
30
0
11
225.46749186710309
21
-42.348901065575376
31
0
0
CIRCLE
5
215
100
AcDbEntity
8
0
100
AcDbCircle
10
73.088433000000009
20
-14.192563000000007
30
0
40
1.1000000000000001
210
0
220
-0
230
1
0
CIRCLE
5
216
100
AcDbEntity
8
0
100
AcDbCircle
10
66.472437000000014
20
-51.713746999999998
30
0
40
1.1000000000000001
210
0
220
-0
230
1
0
CIRCLE
5
217
100
AcDbEntity
8
0
100
AcDbCircle
10
14.125011999999998
20
-21.909574000000003
30
0
40
1.1000000000000001
210
0
220
-0
230
1
0
CIRCLE
5
218
100
AcDbEntity
8
0
100
AcDbCircle
10
17.433
20
-3.1489999999999974
30
0
40
1.1000000000000001
210
0
220
-0
230
1
0
CIRCLE
5
219
100
AcDbEntity
8
0
100
AcDbCircle
10
141.66728000000001
20
-14.270110999999996
30
0
40
1.1000000000000001
210
0
220
-0
230
1
0
CIRCLE
5
220
100
AcDbEntity
8
0
100
AcDbCircle
10
148.28327400000001
20
-51.791289000000006
30
0
40
1.1000000000000001
210
0
220
-0
230
1
0
CIRCLE
5
221
100
AcDbEntity
8
0
100
AcDbCircle
10
197.25408899999996
20
-2.9962899999999948
30
0
40
1.1000000000000001
210
0
220
-0
230
1
0
CIRCLE
5
222
100
AcDbEntity
8
0
100
AcDbCircle
10
200.562093
20
-21.756873999999993
30
0
40
1.1000000000000001
210
0
220
-0
230
1
0
LINE
5
223
100
AcDbEntity
8
0
100
AcDbLine
10
-2.2869307397187955
20
-4.7858639551637694
30
0
11
1.0210670448362258
21
13.974723739718797
31
0
0
LINE
5
224
100
AcDbEntity
8
0
100
AcDbLine
10
1.0210670448362258
20
13.974723739718797
30
0
11
19.781654739718789
21
10.666725955163763
31
0
0
LINE
5
225
100
AcDbEntity
8
0
100
AcDbLine
10
-5.5949285242738123
20
-23.546451650046336
30
0
11
-2.2869307397187906
21
-4.7858639551637694
31
0
0
LINE
5
226
100
AcDbEntity
8
0
100
AcDbLine
10
9.8576613860537385
20
-45.615037129483937
30
0
11
-8.9029263088288282
21
-42.307039344928903
31
0
0
LINE
5
227
100
AcDbEntity
8
0
100
AcDbLine
10
-8.9029263088288282
20
-42.307039344928903
30
0
11
-5.5949285242738069
21
-23.546451650046336
31
0
0
LINE
5
228
100
AcDbEntity
8
0
100
AcDbLine
10
10.725902274388378
20
-40.690998364422882
30
0
11
9.8576613860537385
21
-45.615037129483937
31
0
0
LINE
5
229
100
AcDbEntity
8
0
100
AcDbLine
10
-2.2869307397187955
20
-4.7858639551637694
30
0
11
1.0210670448362258
21
13.974723739718797
31
0
0
LINE
5
230
100
AcDbEntity
8
0
100
AcDbLine
10
1.0210670448362258
20
13.974723739718797
30
0
11
19.781654739718789
21
10.666725955163763
31
0
0
LINE
5
231
100
AcDbEntity
8
0
100
AcDbLine
10
-5.5949285242738123
20
-23.546451650046336
30
0
11
-2.2869307397187906
21
-4.7858639551637694
31
0
0
LINE
5
232
100
AcDbEntity
8
0
100
AcDbLine
10
-8.9029263088288282
20
-42.307039344928903
30
0
11
-5.5949285242738069
21
-23.546451650046336
31
0
0
LINE
5
233
100
AcDbEntity
8
0
100
AcDbLine
10
9.8576613860537385
20
-45.615037129483937
30
0
11
-8.9029263088288282
21
-42.307039344928903
31
0
0
LINE
5
234
100
AcDbEntity
8
0
100
AcDbLine
10
10.725902274388378
20
-40.690998364422882
30
0
11
9.8576613860537385
21
-45.615037129483937
31
0
0
LINE
5
235
100
AcDbEntity
8
0
100
AcDbLine
10
20.649895628053425
20
15.590764720224781
30
0
11
39.410483322935974
21
12.282766935669752
31
0
0
LINE
5
236
100
AcDbEntity
8
0
100
AcDbLine
10
29.486489969270938
20
-43.998996148977916
30
0
11
10.725902274388378
21
-40.690998364422882
31
0
0
LINE
5
237
100
AcDbEntity
8
0
100
AcDbLine
10
29.920610413438258
20
-41.536976766447317
30
0
11
29.486489969270938
21
-43.998996148977916
31
0
0
LINE
5
238
100
AcDbEntity
8
0
100
AcDbLine
10
39.410483322935974
20
12.282766935669752
30
0
11
39.844603767103294
21
14.744786318200276
31
0
0
LINE
5
239
100
AcDbEntity
8
0
100
AcDbLine
10
39.844603767103294
20
14.744786318200276
30
0
11
58.605191461985811
21
11.436788533645251
31
0
0
LINE
5
240
100
AcDbEntity
8
0
100
AcDbLine
10
58.605191461985811
20
11.436788533645251
30
0
11
58.171071017818541
21
8.9747691511147281
31
0
0
LINE
5
241
100
AcDbEntity
8
0
100
AcDbLine
10
48.681198108320785
20
-44.844974551002352
30
0
11
29.920610413438258
21
-41.536976766447317
31
0
0
LINE
5
242
100
AcDbEntity
8
0
100
AcDbLine
10
58.171071017818541
20
8.9747691511147281
30
0
11
76.931658712701065
21
5.6667713665597024
31
0
0
LINE
5
243
100
AcDbEntity
8
0
100
AcDbLine
10
76.931658712701065
20
5.6667713665597024
30
0
11
76.497538268533759
21
3.2047519840291439
31
0
0
LINE
5
244
100
AcDbEntity
8
0
100
AcDbLine
10
73.623660928146052
20
-13.093816328322829
30
0
11
73.601492140964965
21
-13.219541768025952
31
0
0
LINE
5
245
100
AcDbEntity
8
0
100
AcDbLine
10
48.247077664153508
20
-47.306993933532866
30
0
11
48.681198108320785
21
-44.844974551002352
31
0
0
LINE
5
246
100
AcDbEntity
8
0
100
AcDbLine
10
67.007665359036039
20
-50.6149917180879
30
0
11
48.247077664153508
21
-47.306993933532866
31
0
0
LINE
5
247
100
AcDbEntity
8
0
100
AcDbLine
10
85.334132609751251
20
-56.385008885173484
30
0
11
66.57354491486872
21
-53.077011100618449
31
0
0
LINE
5
248
100
AcDbEntity
8
0
100
AcDbLine
10
66.57354491486872
20
-53.077011100618449
30
0
11
67.007665359036039
21
-50.6149917180879
31
0
0
LINE
5
249
100
AcDbEntity
8
0
100
AcDbLine
10
88.64213039430625
20
-37.624421190290946
30
0
11
85.334132609751251
21
-56.385008885173484
31
0
0
LINE
5
250
100
AcDbEntity
8
0
100
AcDbLine
10
91.950128178861263
20
-18.863833495408414
30
0
11
88.64213039430625
21
-37.624421190290946
31
0
0
LINE
5
251
100
AcDbEntity
8
0
100
AcDbLine
10
76.497538268533759
20
3.2047519840291439
30
0
11
95.25812596341629
21
-0.10324580052588184
31
0
0
LINE
5
252
100
AcDbEntity
8
0
100
AcDbLine
10
95.25812596341629
20
-0.10324580052588184
30
0
11
91.950128178861263
21
-18.863833495408414
31
0
0
LINE
5
253
100
AcDbEntity
8
0
100
AcDbLine
10
19.781654739718789
20
10.666725955163763
30
0
11
20.649895628053425
21
15.590764720224781
31
0
0
LWPOLYLINE
5
254
100
AcDbEntity
8
0
100
AcDbPolyline
90
4
70
1
43
0.0
10
44.383764955163784
20
-69.622434739718813
10
25.623177260281217
20
-66.314436955163799
10
28.931175044836234
20
-47.553849260281211
10
47.691762739718797
20
-50.861847044836225
0
LWPOLYLINE
5
255
100
AcDbEntity
8
0
100
AcDbPolyline
90
4
70
1
43
0.0
10
62.572617728443944
20
-77.839361614604258
10
45.307454385395758
20
-69.788483728443936
10
53.358332271556094
20
-52.523320385395742
10
70.62349561460428
20
-60.574198271556071
0
LWPOLYLINE
5
256
100
AcDbEntity
8
0
100
AcDbPolyline
90
4
70
1
43
0.0
10
78.176503338444036
20
-90.506209302972536
10
63.583356697027483
20
-78.261105338443969
10
75.828460661555994
20
-63.667958697027487
10
90.421607302972546
20
-75.913062661556097
0
LINE
5
257
100
AcDbEntity
8
0
100
AcDbLine
10
117.58500000000001
20
-23.577680849309459
30
0
11
97.915000000000006
21
-23.577680849309459
31
0
0
LINE
5
258
100
AcDbEntity
8
0
100
AcDbLine
10
96.91500000000002
20
-22.577680849309459
30
0
11
96.91500000000002
21
1.7372688008918913
31
0
0
ARC
5
259
100
AcDbEntity
8
0
100
AcDbCircle
10
97.915000000000006
20
-22.577680849309463
30
0
40
0.99999999999999645
210
0
220
0
230
1
100
AcDbArc
50
180
51
270
0
LINE
5
260
100
AcDbEntity
8
0
100
AcDbLine
10
117.58500000000001
20
-23.577680849309459
30
0
11
117.58500000000001
21
1.7372688008918917
31
0
0
LINE
5
261
100
AcDbEntity
8
0
100
AcDbLine
10
98.004355178987893
20
1.6223191506905474
30
0
11
116.49564482101214
21
1.6223191506905494
31
0
0
LINE
5
262
100
AcDbEntity
8
0
100
AcDbLine
10
122.68839104483621
20
-19.017893739718801
30
0
11
119.3803932602812
21
-0.25730604483623409
31
0
0
LINE
5
263
100
AcDbEntity
8
0
100
AcDbLine
10
119.3803932602812
20
-0.25730604483623409
30
0
11
138.14098095516374
21
3.0506917397187649
31
0
0
LINE
5
264
100
AcDbEntity
8
0
100
AcDbLine
10
125.99638882939124
20
-37.778481434601368
30
0
11
122.68839104483621
21
-19.017893739718797
31
0
0
LINE
5
265
100
AcDbEntity
8
0
100
AcDbLine
10
129.30438661394624
20
-56.539069129483934
30
0
11
125.99638882939124
21
-37.77848143460136
31
0
0
LINE
5
266
100
AcDbEntity
8
0
100
AcDbLine
10
147.63085386466147
20
-50.769051962398457
30
0
11
148.06497430882879
21
-53.231071344928935
31
0
0
LINE
5
267
100
AcDbEntity
8
0
100
AcDbLine
10
148.06497430882879
20
-53.231071344928935
30
0
11
129.30438661394624
21
-56.539069129483934
31
0
0
LINE
5
268
100
AcDbEntity
8
0
100
AcDbLine
10
122.68839104483621
20
-19.017893739718801
30
0
11
119.3803932602812
21
-0.25730604483623409
31
0
0
LINE
5
269
100
AcDbEntity
8
0
100
AcDbLine
10
119.3803932602812
20
-0.25730604483623409
30
0
11
138.14098095516374
21
3.0506917397187649
31
0
0
LINE
5
270
100
AcDbEntity
8
0
100
AcDbLine
10
125.99638882939124
20
-37.778481434601368
30
0
11
122.68839104483621
21
-19.017893739718797
31
0
0
LINE
5
271
100
AcDbEntity
8
0
100
AcDbLine
10
129.30438661394624
20
-56.539069129483934
30
0
11
125.99638882939124
21
-37.77848143460136
31
0
0
LINE
5
272
100
AcDbEntity
8
0
100
AcDbLine
10
148.06497430882879
20
-53.231071344928935
30
0
11
129.30438661394624
21
-56.539069129483934
31
0
0
LINE
5
273
100
AcDbEntity
8
0
100
AcDbLine
10
147.63085386466147
20
-50.769051962398457
30
0
11
148.06497430882879
21
-53.231071344928935
31
0
0
LINE
5
274
100
AcDbEntity
8
0
100
AcDbLine
10
138.14098095516374
20
3.0506917397187649
30
0
11
137.70686051099642
21
5.5127111222492431
31
0
0
LINE
5
275
100
AcDbEntity
8
0
100
AcDbLine
10
137.70686051099642
20
5.5127111222492431
30
0
11
156.46744820587898
21
8.8207089068042421
31
0
0
LINE
5
276
100
AcDbEntity
8
0
100
AcDbLine
10
166.39144155954403
20
-47.461054177843458
30
0
11
147.63085386466147
21
-50.769051962398457
31
0
0
LINE
5
277
100
AcDbEntity
8
0
100
AcDbLine
10
165.95732111537669
20
-44.99903479531298
30
0
11
166.39144155954403
21
-47.461054177843458
31
0
0
LINE
5
278
100
AcDbEntity
8
0
100
AcDbLine
10
156.46744820587898
20
8.8207089068042421
30
0
11
156.03332776171163
21
11.28272828933472
31
0
0
LINE
5
279
100
AcDbEntity
8
0
100
AcDbLine
10
156.03332776171163
20
11.28272828933472
30
0
11
174.79391545659416
21
14.590726073889719
31
0
0
LINE
5
280
100
AcDbEntity
8
0
100
AcDbLine
10
174.79391545659416
20
14.590726073889719
30
0
11
175.22803590076151
21
12.12870669135917
31
0
0
LINE
5
281
100
AcDbEntity
8
0
100
AcDbLine
10
184.71790881025925
20
-41.691037010757981
30
0
11
165.95732111537669
21
-44.99903479531298
31
0
0
LINE
5
282
100
AcDbEntity
8
0
100
AcDbLine
10
175.22803590076151
20
12.12870669135917
30
0
11
193.98862359564404
21
15.436704475914169
31
0
0
LINE
5
283
100
AcDbEntity
8
0
100
AcDbLine
10
185.15202925442654
20
-44.15305639328853
30
0
11
184.71790881025925
21
-41.691037010757981
31
0
0
LINE
5
284
100
AcDbEntity
8
0
100
AcDbLine
10
203.9126169493091
20
-40.845058608733531
30
0
11
185.15202925442654
21
-44.15305639328853
31
0
0
LINE
5
285
100
AcDbEntity
8
0
100
AcDbLine
10
194.85686448397868
20
10.512665710853106
30
0
11
213.61745217886121
21
13.820663495408105
31
0
0
LINE
5
286
100
AcDbEntity
8
0
100
AcDbLine
10
213.61745217886121
20
13.820663495408105
30
0
11
216.92544996341624
21
-4.9399241994744614
31
0
0
LINE
5
287
100
AcDbEntity
8
0
100
AcDbLine
10
216.92544996341624
20
-4.9399241994744596
30
0
11
220.23344774797127
21
-23.700511894357028
31
0
0
LINE
5
288
100
AcDbEntity
8
0
100
AcDbLine
10
204.78085783764371
20
-45.769097373794594
30
0
11
203.9126169493091
21
-40.845058608733531
31
0
0
LINE
5
289
100
AcDbEntity
8
0
100
AcDbLine
10
223.54144553252627
20
-42.461099589239595
30
0
11
204.78085783764371
21
-45.769097373794594
31
0
0
LINE
5
290
100
AcDbEntity
8
0
100
AcDbLine
10
220.23344774797127
20
-23.700511894357025
30
0
11
223.54144553252627
21
-42.461099589239595
31
0
0
LINE
5
291
100
AcDbEntity
8
0
100
AcDbLine
10
193.98862359564404
20
15.436704475914169
30
0
11
194.85686448397868
21
10.512665710853106
31
0
0
LWPOLYLINE
5
292
100
AcDbEntity
8
0
100
AcDbPolyline
90
4
70
1
43
0.0
10
189.03676673971876
20
-66.213374955163744
10
170.2761790448362
20
-69.521372739718771
10
166.9681812602812
20
-50.760785044836183
10
185.72876895516373
20
-47.452787260281184
0
LWPOLYLINE
5
293
100
AcDbEntity
8
0
100
AcDbPolyline
90
4
70
1
43
0.0
10
169.15549061460425
20
-69.768347728443956
10
151.89032727155609
20
-77.819225614604264
10
143.83944938539577
20
-60.554062271556077
10
161.1046127284439
20
-52.503184385395762
0
LWPOLYLINE
5
294
100
AcDbEntity
8
0
100
AcDbPolyline
90
4
70
1
43
0.0
10
150.9917533029726
20
-78.196115338444017
10
136.39860666155604
20
-90.441219302972584
10
124.15350269702745
20
-75.848072661556074
10
138.746649338444
20
-63.602968697027471
0
LWPOLYLINE
5
295
100
AcDbEntity
8
0
100
AcDbPolyline
90
56
70
1
43
0.0
10
131.43941789198189
20
-94.432290328840836
10
132.3714190564738
20
-95.543006064926047
42
0.45377981369088782
10
141.40056036177054
20
-95.729747034303827
42
-0.20009517734117144
10
189.87445203876246
20
-73.126000124746625
42
0.45377981369088743
10
195.53522031402181
20
-66.089241820351148
10
193.9407849648953
20
-57.046749612294086
42
-0.41421356237309676
10
196.37426369093112
20
-53.571381820256676
10
225.03216930358636
20
-48.518219850149016
42
0.41421356237309537
10
229.89912675565805
20
-41.567484266074189
10
219.88830931315954
20
15.206682695079621
10
219.80148522432611
20
15.699086571585623
42
0.41421356237310736
10
212.85074964025114
20
20.566044023657351
10
201.05380434856886
20
18.48592427879208
42
-0.31783724519579021
10
199.48742769026188
20
19.22515642386637
42
0.31783724519578227
10
193.22192105703405
20
22.182085004163412
10
179.96657606341174
20
19.844810043188939
42
-0.21342176528339044
10
178.77870343432622
20
20.143069354978934
42
0.21342176528339121
10
174.02721291798412
20
21.336106602138898
10
154.28181747008935
20
17.854460639916969
42
0.2134217652833876
10
150.22491966441495
20
15.108266875028107
42
-0.21342176528340726
10
149.21069521299637
20
14.421718433805896
10
135.95535021937411
20
12.084443472831424
42
0.2134217652833868
10
131.89845241369974
20
9.3382497079425768
42
-0.21342176528340204
10
130.88422796228116
20
8.6517012667203694
10
116.5824689098456
20
6.1299152741844534
42
-0.043660942908544602
10
116.49564482101212
20
6.122319150690549
10
98.004355178987893
20
6.1223191506905472
42
-0.043660942908476087
10
97.917531090154441
20
6.1299152741844489
10
83.615772037718926
20
8.6517012667203606
42
-0.21342176528340703
10
82.601547586300342
20
9.3382497079425697
42
0.21342176528339121
10
78.544649780625903
20
12.084443472831429
10
65.289304787003658
20
14.4217184338059
42
-0.2134217652833896
10
64.275080335585073
20
15.108266875028116
42
0.21342176528338863
10
60.218182529910685
20
17.854460639916965
10
40.472787082015913
20
21.336106602138916
42
0.21342176528338863
10
35.721296565673811
20
20.143069354978937
42
-0.21342176528339044
10
34.533423936588285
20
19.844810043188939
10
21.278078942966005
20
22.182085004163419
42
0.31783724519578216
10
15.012572309738133
20
19.225156423866366
42
-0.31783724519578116
10
13.446195651431164
20
18.485924278792105
10
1.6492503597487853
20
20.566044023657394
42
0.41421356237309503
10
-5.3014852243260435
20
15.699086571585729
10
-5.3883093131595086
20
15.206682695079625
10
-15.399126755658003
20
-41.567484266074189
42
0.41421356237310081
10
-10.532169303586262
20
-48.518219850149023
10
18.125736309068891
20
-53.571381820256683
42
-0.41421356237309148
10
20.559215035104721
20
-57.046749612294114
10
18.964779685978218
20
-66.089241820351077
42
0.45377981369090015
10
24.625547961237611
20
-73.126000124746625
42
-0.20009517734117074
10
73.099439638229356
20
-95.729747034303728
42
0.45377981369088988
10
82.128580943526202
20
-95.543006064926089
10
83.060582108018139
20
-94.43229032884085
10
93.057660185316919
20
-82.518236614775233
42
-0.22169466264295001
10
95.355793514673849
20
-81.446599443834842
10
119.14420648532615
20
-81.446599443834856
42
-0.22169466264292331
10
121.44233981468311
20
-82.518236614775219
0
LINE
5
296
100
AcDbEntity
8
0
100
AcDbLine
10
101.25000000000001
20
1.6223191506905477
30
0
11
101.25000000000001
21
6.1223191506905472
31
0
0
LINE
5
297
100
AcDbEntity
8
0
100
AcDbLine
10
113.25000000000001
20
1.622319150690549
30
0
11
113.25000000000001
21
6.122319150690549
31
0
0
ENDSEC
0
SECTION
2
OBJECTS
0
DICTIONARY
5
C
100
AcDbDictionary
3
ACAD_GROUP
350
D
3
ACAD_MLINESTYLE
350
17
0
DICTIONARY
5
D
100
AcDbDictionary
0
DICTIONARY
5
1A
330
C
100
AcDbDictionary
0
DICTIONARY
5
17
100
AcDbDictionary
0
ENDSEC
0
EOF
